<svg width="150" height="150" viewBox="0 0 150 150" fill="none" xmlns="http://www.w3.org/2000/svg">
<path fill-rule="evenodd" clip-rule="evenodd" d="M101.777 125C98.211 125 50.9991 124.603 48.2232 124.603C40.3922 124.603 38 120.716 38 114.731V110.628L112 111.965V115.74C112 121.509 109.563 125 101.777 125ZM38 91.6541L112 90.3053V103.907L38 104.122V91.6541ZM38 77.2481C38 71.8642 40.6066 67.9879 46.9369 67.3078C46.9369 59.4757 47.0271 50.9182 47.0384 49.2747C47.0384 15.6115 102.758 18.4905 102.725 48.47C102.725 50.5555 102.781 59.011 102.849 66.8204C110.206 67.2171 112 72.1816 112 77.7015V83.6407L38 83.4707V77.2481ZM89.6691 66.8204C89.6691 59.283 89.6691 51.9837 89.6691 50.8502C89.6691 34.6307 60.1955 33.0779 60.1729 51.2809C60.1729 52.097 60.1729 59.4757 60.1729 67.0244L89.6691 66.8204Z" fill="black"/>
</svg>
