<svg width="150" height="150" viewBox="0 0 150 150" fill="none" xmlns="http://www.w3.org/2000/svg">
<path fill-rule="evenodd" clip-rule="evenodd" d="M113.585 69.9507C113.585 69.9507 113.494 51.292 113.494 50.6253C113.494 34.4529 86.2105 32.9046 86.1878 51.0547C86.1878 51.9475 86.1878 59.6777 86.1878 66.8767H88.2744C96.4731 66.8767 98.4802 72.0189 98.4802 77.7487V83.6706L24.1134 83.5011V77.2966C24.1134 71.3747 27.2999 67.2723 35.2151 67.2723L73.0109 66.9784C73.0109 59.8472 73.113 51.0208 73.113 49.2126C73.113 15.636 126.785 18.5066 126.751 48.4102C126.751 52.5126 127 70.0411 127 70.0411L113.585 69.9507ZM98.3668 103.855L24 104.138V91.706L98.3668 90.3611V103.855ZM98.3668 115.767C98.3668 121.519 95.9174 125 88.0929 125C84.5095 125 37.0635 124.604 34.2739 124.604C26.4041 124.604 24 120.728 24 114.761V110.67L98.3668 112.003V115.767Z" fill="black"/>
</svg>
